# xmcd
# 
# Track frame offsets:
#     150
#     17449
#     33799
#     55768
#     64169
#     80529
#     100522
#     116989
#     140667
#     159082
#     181529
# 
# Disc length: 2717
# 
# Revision: 0
# Processed by: cddbd v1.5.2PL0 Copyright (c) Steve Scherf et al.
# Submitted via: BonkEnc v1.0.6
# 
DISCID=7c0a9b0b
DTITLE=S.E.N,S - 平日の休日。
DYEAR=2001
DGENRE=New Age
TTITLE0=人と時と風の中へ 〜エピローグ〜
TTITLE1=Flowers
TTITLE2=Daydreaming
TTITLE3=Tears
TTITLE4=Peace of Mind
TTITLE5=Fine
TTITLE6=Brightness
TTITLE7=出逢った頃の君でいて
TTITLE8=Rainbow on the Moon
TTITLE9=陽光
TTITLE10=Heaven's Song
EXTD=
EXTT0=
EXTT1=
EXTT2=
EXTT3=
EXTT4=
EXTT5=
EXTT6=
EXTT7=
EXTT8=
EXTT9=
EXTT10=
PLAYORDER=
